<svg width="207" height="206" viewBox="0 0 207 206" fill="none" xmlns="http://www.w3.org/2000/svg">
<circle cx="103.087" cy="103" r="103" fill="#A00D26"/>
<path fill-rule="evenodd" clip-rule="evenodd" d="M103.085 107.926C93.6219 107.926 44.8696 67.9803 44.8696 67.9803V63.5912C44.8696 58.1528 49.2109 53.739 54.5697 53.739H151.599C156.963 53.739 161.304 58.1528 161.304 63.5912L161.227 68.5173C161.227 68.5173 113.003 107.926 103.085 107.926ZM103.085 121.473C113.458 121.473 161.227 83.2955 161.227 83.2955L161.304 142.409C161.304 147.847 156.963 152.261 151.599 152.261H54.5697C49.2158 152.261 44.8696 147.847 44.8696 142.409L44.9472 83.2955C44.9423 83.2955 93.6219 121.473 103.085 121.473Z" fill="white"/>
</svg>
