<svg width="1527" height="1527" viewBox="0 0 1527 1527" fill="none" xmlns="http://www.w3.org/2000/svg">
<path d="M763.233 1526.47C1184.75 1526.47 1526.47 1184.76 1526.47 763.237C1526.47 341.713 1184.75 0 763.233 0C341.711 0 0 341.713 0 763.237C0 1184.76 341.711 1526.47 763.233 1526.47Z" fill="#A00D26"/>
<path d="M393.519 483.323L494.636 460.38L468.362 577.671L604.804 595.295L554.353 635.585L458.525 639.763C442.983 723.935 401.969 1024.99 452.512 1040.98C499.092 1055.7 588.136 926.478 647.976 707.005C705.288 496.861 747.459 444.606 863.702 452.624C979.96 460.549 965.605 527.915 965.605 558.151C962.953 632.686 642.719 994.368 676.64 1051.34C711.795 1085.08 1013.3 935.637 1013.71 912.355C1018.2 672.374 1059.58 481.704 1059.58 481.704L1160.88 458.221L1134.63 576.068L1271.56 593.599L1219.83 634.197L1125.08 637.774C1125.08 637.774 1058.38 1015.51 1121.64 1040.59C1167.62 1058.79 1227.97 968.772 1227.56 969.343C1201.27 1004.36 1088.82 1283.47 1022.15 1022.29C1007.42 964.594 594.596 1187.89 554.816 1129.05C511.813 1065.51 875.281 607.276 853.988 563.316C818.17 489.29 695.713 714.191 672.616 749.253C656.256 774.062 495.176 1159.21 423.956 1133.85C292.896 1087.16 353.615 655.845 393.519 483.323Z" fill="white" stroke="white"/>
</svg>
