<svg width="206" height="206" viewBox="0 0 206 206" fill="none" xmlns="http://www.w3.org/2000/svg">
<circle cx="103" cy="103" r="103" fill="#A00D26"/>
<g clip-path="url(#clip0)">
<path d="M46.574 92.6442C55.4661 92.6442 62.6957 85.3644 62.6957 76.4105C62.6957 67.4566 55.4661 60.1768 46.574 60.1768C37.6818 60.1768 30.4522 67.4566 30.4522 76.4105C30.4522 85.3644 37.6818 92.6442 46.574 92.6442ZM159.426 92.6442C168.318 92.6442 175.548 85.3644 175.548 76.4105C175.548 67.4566 168.318 60.1768 159.426 60.1768C150.534 60.1768 143.304 67.4566 143.304 76.4105C143.304 85.3644 150.534 92.6442 159.426 92.6442ZM167.487 100.761H151.365C146.932 100.761 142.927 102.562 140.004 105.479C150.156 111.085 157.361 121.205 158.922 133.228H175.548C180.007 133.228 183.609 129.601 183.609 125.112V116.995C183.609 108.041 176.379 100.761 167.487 100.761ZM103 100.761C118.593 100.761 131.213 88.0531 131.213 72.3521C131.213 56.6511 118.593 43.9431 103 43.9431C87.4073 43.9431 74.787 56.6511 74.787 72.3521C74.787 88.0531 87.4073 100.761 103 100.761ZM122.346 108.878H120.255C115.016 111.414 109.197 112.936 103 112.936C96.8033 112.936 91.0095 111.414 85.7448 108.878H83.654C67.633 108.878 54.6348 121.966 54.6348 138.099V145.404C54.6348 152.125 60.0507 157.579 66.7261 157.579H139.274C145.949 157.579 151.365 152.125 151.365 145.404V138.099C151.365 121.966 138.367 108.878 122.346 108.878ZM65.9956 105.479C63.0736 102.562 59.0683 100.761 54.6348 100.761H38.5131C29.6209 100.761 22.3914 108.041 22.3914 116.995V125.112C22.3914 129.601 25.9936 133.228 30.4522 133.228H47.0526C48.6396 121.205 55.844 111.085 65.9956 105.479Z" fill="white"/>
</g>
<defs>
<clipPath id="clip0">
<rect width="161.217" height="129.87" fill="white" transform="translate(22.3914 35.8262)"/>
</clipPath>
</defs>
</svg>
