<svg width="207" height="206" viewBox="0 0 207 206" fill="none" xmlns="http://www.w3.org/2000/svg">
<circle cx="103.043" cy="103" r="103" fill="#A00D26"/>
<path d="M157.656 91.5806L143.639 88.6696C143.101 87.1472 142.474 85.7141 141.847 84.3707L149.774 72.4583C150.938 70.6672 150.714 68.2936 149.192 66.7711L139.25 56.8741C137.772 55.3516 135.398 55.1275 133.652 56.2919L121.65 64.2185C120.262 63.5466 118.829 62.9644 117.306 62.4719L114.485 48.3653C114.082 46.2606 112.246 44.7827 110.096 44.7827H95.9898C93.8852 44.7827 92.0489 46.2606 91.6012 48.3653L88.7799 62.4719C87.3468 62.9644 85.9137 63.5466 84.5255 64.2633L72.5238 56.2919C70.7324 55.1275 68.4038 55.3516 66.8811 56.8741L56.8947 66.7711C55.3719 68.2936 55.1481 70.6672 56.3125 72.4138L64.2836 84.4155C63.6121 85.8486 62.985 87.2814 62.4925 88.6696L48.4307 91.5806C46.3706 92.0283 44.8481 93.8197 44.8481 95.9692V109.986C44.8481 112.136 46.3706 113.972 48.4307 114.375L62.5373 117.286C63.0299 118.719 63.6121 120.152 64.2836 121.54L56.3125 133.542C55.1481 135.333 55.3719 137.707 56.8947 139.185L66.8811 149.126C68.4038 150.604 70.7324 150.873 72.5238 149.664L84.5255 141.737C85.9137 142.409 87.3468 142.991 88.7799 143.484L91.6012 157.59C92.0489 159.695 93.8852 161.218 95.9898 161.218H110.096C112.246 161.218 114.082 159.695 114.485 157.59L117.306 143.528C118.829 142.991 120.262 142.409 121.65 141.737L133.652 149.664C135.398 150.873 137.772 150.604 139.25 149.126L149.192 139.185C150.714 137.662 150.938 135.333 149.774 133.542L141.802 121.585C142.474 120.197 143.101 118.719 143.594 117.286L157.656 114.375C159.76 113.972 161.238 112.136 161.238 109.986V95.9692C161.238 93.8197 159.76 92.0283 157.656 91.5806ZM103.066 127.048C89.8098 127.048 79.0173 116.256 79.0173 102.955C79.0173 89.6998 89.8098 78.907 103.066 78.907C116.321 78.907 127.114 89.6998 127.114 102.955C127.114 116.256 116.321 127.048 103.066 127.048Z" fill="white"/>
</svg>
