<?xml version="1.0" encoding="utf-8"?>
<!-- Generator: Adobe Illustrator 13.0.0, SVG Export Plug-In . SVG Version: 6.00 Build 14948)  -->
<!DOCTYPE svg PUBLIC "-//W3C//DTD SVG 1.1//EN" "http://www.w3.org/Graphics/SVG/1.1/DTD/svg11.dtd">
<svg version="1.1" id="Capa_1" xmlns="http://www.w3.org/2000/svg" xmlns:xlink="http://www.w3.org/1999/xlink" x="0px" y="0px"
	 width="508.043px" height="508.045px" viewBox="0 0 508.043 508.045" enable-background="new 0 0 508.043 508.045"
	 xml:space="preserve">
<g>
	<g>
		<path fill="#A00D26" d="M3.108,378.536c0,66.794,54.144,120.938,120.937,120.938c66.794,0,120.938-54.145,120.938-120.938
			s-54.144-120.937-120.938-120.937c-13.727,0-26.867,2.393-39.168,6.609C112.093,108.118,233.814,7.457,120.979,90.303
			C-4.138,182.17,2.974,374.84,3.114,378.371C3.114,378.426,3.108,378.475,3.108,378.536z"/>
		<path fill="#A00D26" d="M269.168,378.536c0,66.794,54.145,120.938,120.939,120.938c66.793,0,120.938-54.145,120.938-120.938
			s-54.145-120.937-120.939-120.937c-13.729,0-26.867,2.393-39.168,6.609C378.155,108.118,499.875,7.457,387.04,90.303
			C261.922,182.17,269.034,374.84,269.174,378.371C269.174,378.426,269.168,378.475,269.168,378.536z"/>
	</g>
</g>
</svg>
