<?xml version="1.0" encoding="utf-8"?>
<!-- Generator: Adobe Illustrator 13.0.0, SVG Export Plug-In . SVG Version: 6.00 Build 14948)  -->
<!DOCTYPE svg PUBLIC "-//W3C//DTD SVG 1.1//EN" "http://www.w3.org/Graphics/SVG/1.1/DTD/svg11.dtd">
<svg version="1.1" id="Capa_1" xmlns="http://www.w3.org/2000/svg" xmlns:xlink="http://www.w3.org/1999/xlink" x="0px" y="0px"
	 width="508.043px" height="508.045px" viewBox="0 0 508.043 508.045" enable-background="new 0 0 508.043 508.045"
	 xml:space="preserve">
<g>
	<g>
		<path fill="#000000" d="M507.93,155.673c0-0.055,0.006-0.109,0.006-0.165c0-66.793-54.145-120.938-120.938-120.938
			S266.061,88.714,266.061,155.508c0,66.795,54.15,120.938,120.938,120.938c13.727,0,26.867-2.393,39.162-6.609
			c-27.209,156.091-148.93,256.753-36.096,173.905C515.182,351.874,508.071,159.198,507.93,155.673z"/>
		<path fill="#000000" d="M120.938,276.445c13.727,0,26.867-2.393,39.168-6.609C132.89,425.927,11.169,526.589,124.004,443.741
			c125.117-91.867,118.006-284.543,117.865-288.068c0-0.055,0.006-0.109,0.006-0.165c0-66.793-54.144-120.938-120.937-120.938
			C54.144,34.57,0,88.714,0,155.508C0,222.302,54.15,276.445,120.938,276.445z"/>
	</g>
</g>
</svg>
