<svg width="207" height="206" viewBox="0 0 207 206" fill="none" xmlns="http://www.w3.org/2000/svg">
<circle cx="103.565" cy="103" r="103" fill="#A00D26"/>
<path d="M137.153 78.5555C137.153 69.2787 133.391 60.882 127.319 54.8095C121.24 48.7302 112.843 44.9685 103.566 44.9685C94.2895 44.9685 85.8927 48.7302 79.8135 54.8095C73.741 60.882 69.9792 69.2787 69.9792 78.5555C69.9792 87.8322 73.741 96.2289 79.8135 102.301C85.8927 108.381 94.2895 112.142 103.566 112.142C112.843 112.142 121.24 108.381 127.319 102.301C133.391 96.2289 137.153 87.8322 137.153 78.5555Z" fill="white"/>
<path d="M49.8262 147.783C49.8262 154.5 69.9783 161.217 103.565 161.217C135.074 161.217 157.304 154.5 157.304 147.783C157.304 134.348 136.221 120.913 103.565 120.913C69.9783 120.913 49.8262 134.348 49.8262 147.783Z" fill="white"/>
</svg>
